<svg width="50" height="55" viewBox="0 0 50 55" fill="none" xmlns="http://www.w3.org/2000/svg">
<path d="M27.4502 0C30.7172 0 34.0225 0.602237 37.366 1.80671C40.7095 2.98609 42.5727 3.57578 42.9556 3.57578C43.951 3.57578 44.7422 3.19938 45.3292 2.44659C45.9418 1.69379 46.3247 0.903356 46.4778 0.0752796H48.66V18.1048H46.6692C44.7805 14.1902 42.8535 11.1037 40.8882 8.84536C37.2129 4.67988 33.0526 2.59715 28.4074 2.59715C23.1496 2.59715 19.4104 4.83044 17.1899 9.29704C14.9949 13.7385 13.8974 19.7107 13.8974 27.2136C13.8974 32.7341 14.5482 37.276 15.8499 40.8392C18.2746 47.514 22.7795 50.8514 29.3645 50.8514C33.3971 50.8514 37.1491 49.7473 40.6202 47.5391C42.611 46.2593 44.9592 44.2142 47.6646 41.4038L50 43.2858C46.9372 46.6483 44.2445 49.0823 41.9219 50.5879C37.7871 53.2729 33.193 54.6154 28.1394 54.6154C20.4058 54.6154 13.9229 52.357 8.69066 47.8402C2.89689 42.8467 0 36.1217 0 27.6653C0 19.2841 2.76927 12.4964 8.30781 7.30213C13.5145 2.43404 19.8954 0 27.4502 0Z" fill="white"/>
</svg>
